<svg xmlns="http://www.w3.org/2000/svg" viewBox="0 0 107.92 122.68"><title>rheme-logo_1</title><g id="Layer_2" data-name="Layer 2"><g id="Layer_1-2" data-name="Layer 1"><path d="M89.55,90.85A31.54,31.54,0,1,1,75.84,30.91h-49v91.71l81,0Z" fill="#fff"/><path d="M79.85,31.17a46.32,46.32,0,0,1,7.84,2A31.32,31.32,0,0,0,79.85,31.17Z" fill="#fff"/><path d="M89.55,90.85h0a31.59,31.59,0,0,0,10.8-8.57A59.31,59.31,0,0,1,89.55,90.85Z" fill="#fff"/><path d="M44.3,62.44A31.55,31.55,0,0,0,89.55,90.85h0a59.31,59.31,0,0,0,10.8-8.57A31.52,31.52,0,0,0,87.69,33.22a46.32,46.32,0,0,0-7.84-2A31.51,31.51,0,0,0,44.3,62.44Z" fill="#fff"/><polygon points="73.27 122.66 55.95 122.66 0 25.76 17.32 25.76 73.27 122.66" fill="#3efd95"/><polygon points="90.59 122.66 73.27 122.66 2.45 0 19.77 0 90.59 122.66" fill="#faeb42"/><polygon points="107.92 122.68 90.59 122.66 27.06 12.63 44.38 12.63 107.92 122.68" fill="#3a39ff"/></g></g></svg>